<!DOCTYPE svg PUBLIC "-//W3C//DTD SVG 1.1//EN" "http://www.w3.org/Graphics/SVG/1.1/DTD/svg11.dtd">
<!-- Uploaded to: SVG Repo, www.svgrepo.com, Transformed by: SVG Repo Mixer Tools -->
<svg height="800px" width="800px" version="1.1" id="Layer_1" xmlns="http://www.w3.org/2000/svg" xmlns:xlink="http://www.w3.org/1999/xlink" viewBox="0 0 511.999 511.999" xml:space="preserve" fill="#FFF7F1">
<g id="SVGRepo_bgCarrier" stroke-width="0"/>
<g id="SVGRepo_tracerCarrier" stroke-linecap="round" stroke-linejoin="round"/>
<g id="SVGRepo_iconCarrier"> <g> <path style="fill:#FFF7F1;" d="M254.83,272.56c-2.266,6.358-3.51,13.203-3.51,20.34c0,33.46,27.124,60.583,60.583,60.583 c33.46,0,60.583-27.124,60.583-60.583c0-7.137-1.244-13.981-3.51-20.34H254.83z"/> <path style="fill:#FFF7F1;" d="M312.423,424.234c-0.065,0.016-0.132,0.033-0.199,0.049c-18.023,4.391-36.848,6.735-56.223,6.735 c-19.445,0-38.337-2.362-56.421-6.784c-17.27,15.483-28.144,37.958-28.144,62.977c0,3.353,0.201,6.656,0.58,9.906h167.97 c0.379-3.25,0.58-6.555,0.58-9.906C340.567,462.192,329.693,439.718,312.423,424.234z"/> </g> <g> <path style="fill:#FFF7F1;" d="M505.901,164.814c-0.876-7.5-7.229-13.156-14.78-13.156H387.367V64.278 c0-7.221,5.873-13.096,13.095-13.096s13.096,5.875,13.096,13.096c0,8.217,6.663,14.88,14.88,14.88s14.88-6.663,14.88-14.88 c0-23.631-19.225-42.856-42.856-42.856c-23.63,0-42.855,19.225-42.855,42.856V257.68H254.829c-6.293,0-11.904,3.958-14.017,9.885 c-2.902,8.144-4.373,16.667-4.373,25.335c0,41.611,33.852,75.465,75.463,75.465s75.465-33.854,75.465-75.465 c0-0.851-0.025-1.701-0.054-2.549c0.025-0.356,0.054-0.711,0.054-1.073V181.419h90.122c0.25,4.305,0.376,8.599,0.376,12.854 c0,76.21-38.419,146.202-102.771,187.227c-6.928,4.419-8.965,13.617-4.549,20.548c2.838,4.451,7.648,6.882,12.562,6.882 c2.736,0,5.506-0.754,7.985-2.333c72.969-46.521,116.533-125.892,116.533-212.322C507.627,184.536,507.045,174.626,505.901,164.814 z M311.903,338.604c-25.201,0-45.704-20.502-45.704-45.704c0-1.832,0.109-3.655,0.326-5.46h90.759 c0.216,1.805,0.324,3.628,0.324,5.46C357.608,318.102,337.104,338.604,311.903,338.604z"/> <path style="fill:#FFF7F1;" d="M322.354,413.154c-3.635-3.259-8.641-4.525-13.389-3.393l-0.263,0.065 c-30.119,7.336-61.936,8.248-92.474,2.735c-0.228-0.042-0.454-0.089-0.683-0.131c-1.699-0.312-3.393-0.647-5.083-1 c-0.902-0.189-1.799-0.388-2.696-0.589c-0.984-0.217-1.966-0.442-2.946-0.673c-97.743-23.17-170.683-111.17-170.683-215.896 c0-4.253,0.125-8.547,0.376-12.853h256.454c8.217,0,14.88-6.663,14.88-14.88c0-8.217-6.663-14.88-14.88-14.88H20.881 c-7.552,0-13.906,5.656-14.78,13.156c-1.146,9.815-1.726,19.725-1.726,29.458c0,109.816,70.72,203.412,169.003,237.675 c-10.843,16.222-16.824,35.436-16.824,55.263c0,3.851,0.229,7.764,0.682,11.635c0.876,7.498,7.229,13.153,14.779,13.153h167.97 c7.55,0,13.906-5.656,14.78-13.156c0.452-3.869,0.68-7.781,0.68-11.632C355.447,459,343.385,432.009,322.354,413.154z M186.493,482.24c1.113-15.478,7.392-30.173,17.768-41.688c0.174,0.036,0.35,0.065,0.522,0.103 c1.469,0.305,2.946,0.586,4.424,0.865c0.549,0.104,1.095,0.217,1.646,0.317c14.651,2.665,29.738,4.064,45.148,4.064 c0.216,0,0.426-0.024,0.64-0.033c17.187-0.042,34.358-1.811,51.1-5.314c10.374,11.514,16.652,26.208,17.765,41.687L186.493,482.24 L186.493,482.24z"/> <path style="fill:#FFF7F1;" d="M276.855,129.712c-3.809,0-7.616-1.454-10.522-4.358c-5.811-5.811-5.811-15.231,0-21.045 l22.401-22.402c1.879-1.878,2.912-4.4,2.912-7.101c0-2.702-1.033-5.226-2.912-7.102c-3.848-3.848-10.355-3.849-14.206,0 c-0.103,0.103-0.208,0.207-0.314,0.307l-9.217,8.687c-7.479,7.389-17.404,11.455-27.972,11.455 c-10.653,0-20.648-4.129-28.147-11.629c-7.498-7.497-11.629-17.493-11.629-28.144s4.131-20.648,11.629-28.147L224.75,4.357 c5.811-5.809,15.233-5.809,21.044,0c5.811,5.811,5.812,15.233,0,21.045l-15.873,15.874c-1.878,1.878-2.914,4.4-2.914,7.102 c0,2.701,1.034,5.224,2.912,7.101c1.879,1.879,4.402,2.912,7.104,2.912c2.702,0,5.224-1.033,7.102-2.912 c0.104-0.103,0.21-0.205,0.315-0.307l9.217-8.687c15.535-15.346,40.656-15.285,56.118,0.173c7.5,7.5,11.629,17.496,11.629,28.147 s-4.129,20.648-11.629,28.146l-22.399,22.402C284.472,128.26,280.664,129.712,276.855,129.712z"/> </g> </g>
</svg>