<svg fill="#cc2727" height="800px" width="800px" version="1.1" id="Layer_1" xmlns="http://www.w3.org/2000/svg" xmlns:xlink="http://www.w3.org/1999/xlink" viewBox="0 0 503.607 503.607" xml:space="preserve" data-originalfillcolor="#fff7f1" transform="rotate(0) scale(1, 1)">

<g id="SVGRepo_bgCarrier" stroke-width="0"/>

<g id="SVGRepo_tracerCarrier" stroke-linecap="round" stroke-linejoin="round"/>

<g id="SVGRepo_iconCarrier"> <g> <g> <g> <path d="M344.131,0c-18.516,0-33.574,15.058-33.574,33.574v364.275c-92.815,49.412-168.356,0.227-171.579-1.93 c-2.577-1.721-5.909-1.888-8.628-0.436c-2.736,1.46-4.448,4.306-4.448,7.403c0,55.539,45.182,100.721,100.721,100.721 c55.539,0,100.721-45.182,100.721-100.721V33.574c0-9.258,7.529-16.787,16.787-16.787c9.258,0,16.787,7.529,16.787,16.787 c0,4.642,3.752,8.393,8.393,8.393c4.642,0,8.393-3.752,8.393-8.393C377.705,15.058,362.647,0,344.131,0z"/> <path d="M222.746,385.147c1.234,0.646,2.568,0.948,3.869,0.948c3.03,0,5.959-1.645,7.453-4.516 c2.14-4.113,0.537-9.182-3.567-11.314c-7.521-3.92-11.877-9.35-12.288-15.293c-0.478-6.874,4.356-14.454,13.27-20.782 c13.992-9.946,21.193-22.595,20.295-35.63c-0.814-11.835-8.57-22.402-21.277-29.016c-4.121-2.157-9.199-0.546-11.323,3.559 c-2.14,4.121-0.537,9.182,3.567,11.323c7.521,3.92,11.877,9.342,12.288,15.284c0.478,6.883-4.365,14.462-13.27,20.791 c-13.992,9.938-21.202,22.587-20.295,35.63C202.283,367.958,210.03,378.533,222.746,385.147z"/> <path d="M162.581,384.227c1.561,1.259,3.424,1.872,5.279,1.872c2.451,0,4.868-1.066,6.53-3.106 c2.921-3.609,2.367-8.897-1.234-11.81c-3.567-2.887-5.489-7.051-5.279-11.44c0.168-3.634,1.863-6.773,4.633-8.62 c7.269-4.818,11.684-12.766,12.12-21.806c0.462-9.636-3.836-19.087-11.474-25.281c-3.618-2.913-8.889-2.35-11.81,1.234 c-2.921,3.609-2.367,8.897,1.234,11.81c3.567,2.887,5.489,7.05,5.279,11.44c-0.176,3.634-1.863,6.773-4.633,8.62 c-7.269,4.818-11.684,12.766-12.12,21.806C150.646,368.581,154.943,378.032,162.581,384.227z"/> <path d="M271.704,384.227c1.561,1.259,3.425,1.872,5.279,1.872c2.451,0,4.868-1.066,6.53-3.106 c2.921-3.609,2.367-8.897-1.234-11.81c-3.567-2.887-5.489-7.051-5.279-11.44c0.168-3.634,1.863-6.773,4.633-8.62 c7.269-4.818,11.684-12.766,12.12-21.806c0.462-9.636-3.836-19.087-11.474-25.281c-3.618-2.913-8.897-2.35-11.81,1.234 c-2.921,3.609-2.367,8.897,1.234,11.81c3.567,2.887,5.489,7.05,5.279,11.44c-0.176,3.634-1.863,6.773-4.633,8.62 c-7.269,4.818-11.684,12.766-12.12,21.806C259.769,368.581,264.066,378.032,271.704,384.227z"/> </g> </g> </g> </g>

</svg>