<svg xmlns="http://www.w3.org/2000/svg" version="1.0" width="150.000000pt" height="150.000000pt" viewBox="0 0 150.000000 150.000000" preserveAspectRatio="xMidYMid meet">

<g transform="translate(0.000000,150.000000) scale(0.100000,-0.100000)" fill="#cc2727" stroke="none">
<path d="M602 1405 c-35 -8 -102 -33 -149 -56 -68 -32 -103 -58 -168 -122 -142 -142 -200 -280 -200 -477 0 -197 58 -336 199 -475 63 -62 100 -90 166 -123 195 -96 405 -96 600 -1 111 55 237 178 293 286 97 187 103 405 15 596 -17 37 -34 67 -38 67 -3 0 -17 -11 -30 -25 -21 -22 -22 -27 -10 -55 9 -22 18 -30 33 -28 28 4 45 -46 25 -70 -10 -11 -12 -25 -7 -42 4 -14 7 -71 8 -127 2 -179 -58 -317 -192 -439 -113 -103 -243 -154 -395 -154 -162 0 -299 57 -418 175 -234 233 -234 596 1 830 119 120 252 175 421 175 159 0 285 -52 405 -167 l65 -63 28 28 27 29 -75 70 c-160 153 -386 215 -604 168z" fill="#cc2727"/>
<path d="M643 1265 c-295 -64 -480 -368 -398 -656 33 -115 115 -230 208 -290 57 -37 63 -39 74 -23 7 10 13 21 13 24 0 4 -25 24 -57 46 -52 36 -133 124 -133 145 0 5 166 9 400 9 316 0 400 -3 400 -13 0 -21 -87 -113 -135 -144 -44 -28 -53 -45 -36 -72 7 -11 20 -6 64 23 150 99 231 254 232 438 0 53 -5 102 -10 107 -7 7 -45 -12 -118 -59 -72 -46 -118 -70 -138 -70 -16 0 -29 3 -29 8 0 4 59 50 130 102 71 52 129 100 130 106 0 5 -6 19 -14 30 -14 18 -22 12 -149 -113 -89 -89 -141 -133 -155 -133 -12 0 -22 4 -22 9 0 5 30 42 66 83 37 40 87 96 112 123 25 28 59 65 76 83 l30 32 -67 64 c-77 74 -161 120 -262 141 -84 18 -130 18 -212 0z m126 -234 c69 -21 158 -83 180 -125 13 -24 13 -29 -6 -47 l-20 -21 -55 55 c-58 59 -123 87 -198 87 -113 0 -221 -75 -262 -183 -22 -57 -27 -62 -53 -62 -27 0 -30 3 -27 30 5 51 60 152 105 190 102 88 215 114 336 76z m-36 -95 c58 -17 101 -48 137 -98 l29 -40 -21 -29 c-26 -35 -34 -36 -42 -6 -9 36 -72 93 -117 106 -84 25 -168 -12 -208 -92 -20 -40 -28 -47 -52 -47 -35 0 -38 23 -10 78 29 55 83 102 143 123 64 22 82 23 141 5z m11 -115 c32 -21 68 -70 60 -83 -9 -14 -75 -9 -105 9 -27 16 -31 16 -58 0 -32 -18 -96 -23 -106 -7 -9 14 25 60 60 81 40 25 111 25 149 0z m462 -136 c3 -8 2 -32 -3 -52 l-9 -38 -444 0 -444 0 -9 38 c-17 71 -47 67 453 67 390 0 451 -2 456 -15z" fill="#cc2727"/>
</g>
</svg>