<svg xmlns="http://www.w3.org/2000/svg" version="1.0" width="445.000000pt" height="537.000000pt" viewBox="0 0 445.000000 537.000000" preserveAspectRatio="xMidYMid meet">

<g transform="translate(0.000000,537.000000) scale(0.100000,-0.100000)" fill="#253054" stroke="none">
<path d="M1877 5280 c-24 -15 -47 -63 -47 -98 0 -40 56 -90 157 -140 113 -57 146 -66 188 -52 34 11 95 70 95 92 0 7 -25 36 -56 66 -96 93 -281 166 -337 132z m113 -30 c0 -5 10 -10 23 -10 55 -1 175 -79 201 -132 13 -26 13 -28 -5 -28 -11 0 -46 25 -77 55 -36 35 -69 57 -89 61 -18 3 -33 10 -33 16 0 5 -6 8 -12 7 -7 -1 -20 1 -28 4 -8 3 -26 7 -39 9 -14 2 -26 9 -29 16 -2 8 10 12 42 12 25 0 46 -4 46 -10z m-15 -107 c38 -26 105 -59 148 -74 43 -15 81 -30 84 -33 3 -3 -7 -10 -22 -16 -60 -23 -200 30 -287 108 -44 41 -58 69 -41 85 3 4 16 0 27 -8 12 -9 52 -37 91 -62z m80 12 c22 -12 49 -33 60 -45 l20 -23 -25 8 c-42 12 -143 70 -148 84 -6 19 41 7 93 -24z" fill="#253054"/>
<path d="M2875 5201 c-254 -46 -400 -135 -533 -325 l-56 -79 -115 7 c-64 3 -244 13 -401 21 -157 8 -361 19 -455 24 -688 38 -827 43 -837 33 -18 -18 -22 -104 -5 -126 15 -21 10 -20 727 -46 771 -28 1022 -38 1027 -43 3 -3 -2 -48 -11 -100 -9 -52 -16 -112 -16 -134 0 -71 67 -49 -765 -248 -219 -53 -495 -120 -994 -243 -321 -79 -356 -89 -374 -113 -17 -23 -18 -32 -8 -61 6 -19 22 -44 34 -56 l22 -21 265 70 c146 38 297 78 335 89 39 11 142 37 230 59 88 21 342 86 565 144 626 163 692 179 700 170 4 -4 13 -26 20 -48 21 -66 77 -166 130 -232 97 -118 219 -200 365 -246 44 -14 140 -44 212 -66 152 -47 351 -130 561 -232 157 -77 167 -92 53 -82 -58 6 -64 5 -58 -11 4 -10 7 -24 7 -32 0 -27 38 -52 97 -64 93 -20 159 -54 229 -122 95 -91 108 -115 101 -196 -6 -87 -38 -170 -85 -221 -30 -34 -49 -44 -102 -57 -159 -40 -265 6 -502 219 l-75 68 35 87 c32 78 36 97 36 182 1 80 -3 102 -22 137 -28 53 -53 69 -118 78 -61 8 -196 -15 -279 -47 l-56 -21 -52 35 c-116 79 -199 107 -347 115 -111 6 -150 15 -112 27 46 15 29 86 -20 86 -59 0 -229 -120 -280 -198 -18 -26 -36 -41 -56 -45 -34 -7 -102 -62 -102 -82 0 -17 -39 -64 -40 -47 0 7 12 31 26 54 l27 42 -23 18 c-28 23 -62 23 -83 0 -46 -50 -106 -250 -107 -352 -1 -71 -16 -109 -73 -192 -77 -113 -106 -222 -122 -458 -13 -210 -21 -242 -75 -303 -41 -47 -67 -48 -78 -5 -11 42 -49 46 -70 8 -15 -29 -11 -142 6 -163 6 -7 22 -52 36 -100 14 -48 30 -96 36 -106 15 -29 12 -62 -8 -84 -28 -32 -21 -142 17 -255 131 -390 459 -839 754 -1034 212 -139 371 -197 647 -234 155 -21 296 -14 470 21 295 61 549 179 707 328 149 140 279 379 392 717 94 281 131 495 131 757 0 174 -12 237 -52 275 -32 30 -167 77 -281 98 l-69 13 7 46 c9 62 38 121 89 178 108 121 135 172 100 191 -34 19 -78 0 -138 -61 -67 -68 -60 -51 19 55 73 95 130 212 156 318 18 69 21 103 16 185 -9 153 -53 284 -99 293 -9 2 -28 -8 -43 -21 l-28 -24 31 -87 c44 -121 42 -144 -8 -68 -49 76 -183 218 -265 279 -59 45 -258 146 -548 279 -210 96 -290 145 -378 233 -84 84 -147 195 -156 274 l-5 44 186 47 c102 25 229 60 281 77 l95 30 0 34 c0 43 -25 59 -78 49 -20 -3 -131 -28 -247 -55 -115 -26 -211 -46 -213 -44 -9 8 8 51 37 98 l31 47 57 0 c159 -1 404 -20 442 -36 32 -13 47 -14 72 -5 42 15 79 14 79 -1 0 -7 -23 -49 -50 -93 -28 -44 -50 -85 -50 -92 0 -15 32 -33 57 -33 20 0 73 50 92 88 13 25 31 21 31 -8 0 -24 44 -54 66 -46 22 9 11 31 -14 29 -25 -3 -36 15 -47 71 -16 94 -97 203 -189 255 -76 44 -156 63 -253 62 -204 -1 -367 -102 -463 -286 -51 -97 -110 -138 -110 -76 0 53 78 187 152 261 81 83 216 155 313 169 50 7 53 9 20 9 -22 1 -103 -9 -180 -22 -77 -13 -142 -22 -143 -21 -7 7 58 93 90 120 18 16 61 42 96 58 63 29 65 29 200 25 120 -4 144 -7 193 -30 76 -34 129 -85 168 -158 47 -89 40 -99 -39 -50 -75 47 -174 80 -234 79 -37 -1 -34 -2 29 -15 189 -41 359 -180 411 -337 l14 -42 -4 48 -4 47 64 0 c74 0 97 16 92 64 l-3 31 -78 6 c-42 4 -83 12 -91 18 -7 6 -16 33 -20 60 -9 68 -66 178 -125 239 -146 152 -332 206 -566 163z m278 -15 c40 -8 96 -25 123 -37 72 -33 196 -161 233 -239 39 -82 59 -166 43 -182 -19 -19 -38 6 -77 100 -79 189 -214 297 -423 340 -50 10 -94 21 -98 25 -13 12 122 7 199 -7z m-168 -27 c113 -11 178 -27 120 -29 -126 -4 -280 -22 -336 -39 -153 -48 -314 -192 -394 -353 -45 -91 -59 -145 -71 -261 -6 -63 -31 -101 -59 -91 -11 5 -15 23 -15 78 0 252 183 539 415 651 119 58 156 63 340 44z m-115 -87 c-242 -87 -389 -264 -450 -537 -12 -55 -27 -106 -33 -113 -6 -7 -22 -12 -36 -10 -35 4 -38 38 -12 155 57 262 231 447 485 513 106 28 133 23 46 -8z m-193 -159 c-18 -33 -167 -206 -174 -200 -11 12 108 181 154 216 32 26 39 21 20 -16z m78 -75 c-102 -80 -174 -167 -221 -266 -25 -53 -49 -104 -53 -112 -11 -21 -51 -26 -51 -6 0 8 11 51 25 95 44 138 157 266 273 307 60 21 70 15 27 -18z m-2149 11 c4 -8 9 -7 14 2 7 10 11 10 24 0 13 -11 16 -11 16 0 0 11 2 11 9 0 6 -9 6 -22 1 -31 -5 -9 -8 -25 -7 -35 2 -18 -5 -20 -71 -23 -87 -3 -102 5 -102 59 l0 39 54 0 c30 0 58 -5 62 -11z m162 -47 c4 -47 -12 -61 -47 -42 -47 25 -33 94 18 88 23 -3 26 -8 29 -46z m368 4 c8 -31 2 -58 -13 -63 -18 -6 -43 39 -36 65 7 30 41 29 49 -2z m88 0 c7 -27 -1 -57 -18 -68 -18 -13 -26 -9 -38 17 -9 19 -8 29 6 50 21 32 42 32 50 1z m414 -2 c8 -2 10 -9 6 -16 -6 -10 -5 -10 7 -1 10 8 40 11 90 9 41 -3 153 -7 249 -11 217 -7 260 -12 267 -31 3 -8 -3 -24 -12 -34 -19 -21 -65 -27 -65 -9 0 6 -5 7 -12 2 -18 -11 -252 -3 -256 8 -2 6 -10 5 -18 -2 -11 -9 -18 -9 -29 1 -8 7 -15 8 -15 3 0 -10 -221 -7 -269 3 -13 3 -86 6 -161 7 -146 2 -170 9 -170 52 0 12 3 25 7 29 7 7 356 -2 381 -10z m1527 -4 c65 -22 133 -64 183 -110 76 -73 8 -83 -89 -14 -74 54 -174 104 -206 104 -46 0 -72 24 -35 33 39 11 92 6 147 -13z m124 -10 c66 -31 78 -50 19 -31 -43 14 -117 60 -98 61 8 0 44 -14 79 -30z m-330 15 c-3 -2 -32 -22 -65 -43 -66 -43 -119 -102 -154 -172 -36 -73 -68 -110 -96 -110 -28 0 -30 10 -8 53 56 109 150 202 263 258 33 17 71 26 60 14z m74 -42 c-7 -2 -19 -2 -25 0 -7 3 -2 5 12 5 14 0 19 -2 13 -5z m69 -36 c41 -1 63 -8 80 -23 13 -12 32 -26 43 -33 16 -9 -2 -10 -85 -8 -135 5 -303 16 -308 21 -2 2 14 16 34 30 35 23 45 25 109 20 38 -3 96 -6 127 -7z m329 -48 c16 -31 2 -36 -26 -9 -31 29 -35 56 -5 40 11 -6 25 -20 31 -31z m274 11 c3 -5 12 -7 20 -3 18 6 20 -11 3 -24 -21 -17 -65 -24 -108 -17 -34 6 -40 10 -40 30 0 23 4 24 59 24 33 0 62 -4 66 -10z m-205 -106 c8 -20 6 -36 -10 -72 -43 -98 -78 -130 -107 -101 -9 9 -2 32 29 93 61 119 70 127 88 80z m-252 -29 c2 -18 -7 -23 -70 -39 -40 -11 -92 -20 -115 -20 -24 -1 -43 -4 -43 -8 0 -5 -9 -8 -19 -8 -11 0 -21 -3 -23 -7 -1 -5 -46 -19 -98 -32 -52 -13 -120 -30 -150 -38 -30 -9 -59 -17 -65 -18 -5 -1 -13 -3 -17 -5 -65 -18 -112 -28 -123 -24 -7 3 -24 -2 -37 -10 -14 -9 -47 -19 -74 -22 -27 -4 -52 -11 -55 -16 -3 -5 -17 -10 -30 -12 -13 -2 -31 -6 -39 -9 -18 -7 -89 -21 -110 -22 -8 -1 -24 -6 -35 -11 -11 -6 -47 -16 -80 -23 -58 -13 -104 -25 -190 -50 -22 -7 -51 -13 -65 -15 -14 -1 -31 -6 -38 -10 -6 -4 -27 -8 -47 -10 -19 -2 -40 -8 -47 -13 -7 -6 -51 -18 -98 -28 -47 -9 -94 -21 -105 -25 -11 -4 -42 -14 -70 -20 -27 -7 -77 -21 -110 -31 -33 -10 -71 -21 -85 -23 -53 -11 -116 -29 -133 -37 -11 -6 -25 -6 -36 1 -14 7 -21 6 -23 -2 -5 -13 -89 -37 -134 -38 -23 0 -34 6 -44 26 -22 40 -4 57 71 69 35 6 70 14 76 18 7 4 43 14 80 22 38 8 103 24 147 36 60 16 80 18 86 9 5 -9 9 -9 14 -1 4 6 16 11 27 11 10 0 19 5 19 10 0 6 13 10 29 10 16 0 42 5 58 12 15 6 35 13 43 14 8 2 44 10 80 19 122 30 155 36 183 36 15 0 27 4 27 10 0 6 9 8 20 4 11 -4 20 -2 20 4 0 6 11 11 25 11 14 0 42 7 62 15 51 22 157 45 204 45 22 0 39 5 39 11 0 6 8 9 18 7 10 -3 27 1 37 8 10 8 36 14 57 14 21 0 38 4 38 9 0 5 15 11 33 14 17 3 75 12 127 21 52 9 101 14 108 11 6 -2 12 2 12 9 0 12 50 28 135 42 17 3 39 9 50 14 11 5 31 11 45 13 14 3 79 19 145 36 66 17 135 31 153 31 17 0 32 4 32 9 0 13 27 19 70 18 27 -2 36 -7 38 -22z m-560 -232 c6 -16 16 -46 23 -68 61 -203 236 -337 700 -535 189 -81 250 -113 339 -175 135 -95 296 -282 347 -403 22 -52 33 -169 23 -240 -25 -180 -173 -338 -348 -372 -76 -15 -223 -8 -307 14 -119 32 -329 148 -389 215 -20 22 -20 22 2 43 l22 22 87 -61 c108 -74 226 -134 322 -163 61 -19 89 -22 163 -18 77 5 100 11 163 42 84 42 140 98 182 185 39 79 44 188 13 274 -29 80 -115 210 -188 285 -90 90 -190 151 -537 322 -356 175 -446 230 -533 325 -90 99 -169 267 -149 320 11 26 53 18 65 -12z m-98 -12 c5 -11 10 -29 10 -41 0 -25 58 -144 99 -204 41 -60 127 -137 211 -191 41 -26 198 -109 350 -185 428 -214 520 -275 642 -428 74 -93 106 -156 124 -242 23 -112 -11 -225 -91 -300 -42 -39 -42 -39 -4 65 28 79 30 191 5 263 -26 78 -105 189 -189 269 -105 100 -241 178 -522 303 -190 84 -268 124 -363 187 -137 91 -274 271 -324 426 -22 68 -22 69 -3 83 26 19 42 18 55 -5z m-96 -33 c8 -13 28 -60 45 -104 61 -158 175 -296 331 -396 102 -67 137 -84 396 -203 111 -51 248 -120 305 -154 103 -62 219 -154 208 -165 -3 -3 -43 21 -89 54 -90 65 -237 140 -420 215 -309 126 -426 182 -490 233 -83 67 -172 156 -216 218 -67 93 -136 270 -120 309 8 22 33 18 50 -7z m-80 -30 c8 -18 28 -71 45 -116 17 -46 52 -115 77 -154 25 -39 43 -73 40 -76 -3 -2 -31 22 -63 55 -100 104 -183 271 -153 307 20 25 39 19 54 -16z m-96 0 c6 -7 22 -44 37 -83 51 -136 136 -234 310 -356 129 -90 135 -94 135 -107 0 -28 -166 42 -264 112 -80 57 -194 178 -233 247 -17 30 -39 81 -48 113 -17 57 -17 60 1 73 22 16 48 17 62 1z m-1514 -301 c10 -52 4 -67 -22 -51 -20 13 -37 66 -28 89 12 33 41 12 50 -38z m-91 5 c-2 -7 2 -12 7 -12 6 0 10 -14 10 -31 0 -24 -4 -30 -17 -27 -10 2 -20 14 -21 28 -2 14 -8 30 -13 36 -5 6 -6 14 -2 18 11 10 38 1 36 -12z m-368 -86 c22 -34 24 -79 4 -84 -25 -5 -49 26 -49 62 0 52 20 61 45 22z m-81 -18 c3 -7 7 -27 10 -44 5 -30 3 -31 -47 -47 -29 -9 -69 -19 -89 -23 -33 -5 -38 -4 -38 13 0 10 -5 24 -11 30 -15 15 6 53 31 53 10 0 22 5 25 11 4 6 13 8 19 6 7 -3 19 -1 27 4 21 13 69 11 73 -3z m1986 -312 c0 -8 -33 -34 -73 -59 -99 -62 -195 -152 -247 -232 -23 -36 -45 -63 -48 -61 -19 19 100 218 164 275 81 71 204 117 204 77z m210 -100 c78 -17 180 -57 234 -92 l39 -26 -22 -21 c-24 -24 -9 -28 -176 39 -66 26 -79 28 -215 28 -129 0 -154 -3 -225 -27 -43 -14 -82 -24 -85 -21 -7 8 89 93 120 105 72 30 226 37 330 15z m1685 -71 c30 -59 30 -62 30 -222 0 -109 -4 -166 -12 -174 -8 -8 -13 5 -17 57 -12 123 -35 251 -56 303 -28 71 -27 103 3 99 16 -2 30 -20 52 -63z m-1045 -5 c30 -6 62 -18 72 -27 65 -59 -57 -270 -235 -407 -302 -231 -667 -301 -667 -128 0 155 314 439 591 532 58 20 127 36 170 39 9 0 40 -4 69 -9z m-660 -26 c100 -19 190 -51 190 -68 0 -40 -49 -45 -160 -16 -155 41 -322 20 -433 -54 -75 -50 -121 -111 -149 -197 -12 -38 -26 -69 -30 -69 -11 0 -2 57 24 145 39 135 68 169 190 224 114 52 225 62 368 35z m-674 -25 c3 -6 -10 -46 -30 -88 -47 -101 -66 -191 -66 -322 0 -177 50 -326 165 -484 74 -103 75 -105 32 -105 -29 0 -42 8 -76 46 -46 52 -119 196 -151 299 -31 95 -40 338 -17 436 21 87 53 171 78 203 21 27 53 34 65 15z m100 -110 c-49 -189 -44 -280 21 -435 27 -65 51 -102 95 -150 73 -78 146 -126 392 -261 105 -58 229 -130 276 -161 101 -67 238 -202 264 -260 39 -86 -19 -101 -69 -17 -16 28 -66 86 -110 130 -97 97 -176 145 -465 284 -247 118 -341 200 -421 367 -107 225 -105 508 5 601 41 35 43 21 12 -98z m1778 81 c31 -10 80 -32 107 -47 58 -31 149 -125 149 -154 0 -16 -12 -9 -63 34 -73 62 -148 100 -228 116 -57 12 -97 40 -84 60 10 17 56 13 119 -9z m-1182 -50 c58 -15 76 -33 57 -56 -11 -13 -22 -15 -64 -8 -27 5 -97 8 -155 8 -94 0 -112 -3 -167 -28 -131 -60 -194 -168 -194 -333 0 -100 -8 -111 -29 -39 -19 69 -10 211 18 267 46 95 160 180 269 199 60 11 202 6 265 -10z m743 -135 c-9 -35 -28 -78 -41 -96 -13 -18 -24 -41 -24 -51 0 -10 -8 -26 -17 -36 -10 -10 -30 -37 -46 -60 -15 -23 -31 -42 -35 -42 -5 0 -30 -21 -56 -46 -28 -26 -54 -43 -62 -40 -8 3 -14 0 -14 -7 0 -18 -33 -36 -80 -43 -22 -4 -40 -10 -40 -15 0 -12 -97 -39 -139 -39 -19 0 -49 -5 -67 -12 -26 -9 -45 -8 -101 7 -130 34 -132 50 -7 65 88 10 164 30 164 44 0 4 11 5 25 2 14 -4 25 -3 25 1 0 9 73 58 140 94 74 40 132 81 185 129 28 26 62 54 78 64 15 10 27 23 27 28 0 19 94 142 98 129 2 -7 -3 -42 -13 -76z m-1431 -270 c43 -158 161 -323 294 -411 31 -21 163 -91 292 -155 292 -145 378 -208 459 -341 l23 -38 -45 0 c-43 0 -47 3 -82 50 -82 112 -230 217 -430 305 -220 96 -234 103 -294 145 -136 96 -274 327 -290 488 -9 93 2 210 26 259 l18 38 7 -140 c3 -77 13 -167 22 -200z m664 316 c10 -6 -4 -29 -57 -92 -74 -87 -141 -204 -141 -246 0 -34 32 -93 72 -129 126 -120 360 -122 580 -7 l67 35 83 -63 c157 -119 394 -206 528 -195 36 3 98 16 138 30 70 24 72 24 72 5 0 -25 -54 -164 -80 -206 -26 -43 -49 -42 -103 6 -57 49 -151 101 -247 136 -69 26 -87 28 -215 28 -201 0 -293 -25 -410 -113 -96 -71 -102 -72 -175 -41 -36 15 -129 62 -207 104 -351 189 -378 222 -372 450 4 111 6 126 31 167 30 51 66 81 141 116 46 21 66 24 167 24 63 0 121 -4 128 -9z m820 -355 c48 -47 85 -87 82 -90 -13 -12 -224 149 -215 165 16 24 52 3 133 -75z m-1673 12 c2 -13 14 -69 25 -126 25 -126 70 -252 115 -323 32 -51 33 -54 14 -57 -95 -16 -218 314 -185 492 8 41 23 47 31 14z m1561 -121 c86 -62 269 -143 377 -167 53 -13 99 -26 102 -30 8 -13 -95 -19 -152 -9 -132 25 -360 125 -441 195 -48 40 -51 55 -19 77 20 14 24 13 52 -7 17 -13 53 -39 81 -59z m-1596 -137 c10 -36 37 -102 60 -148 43 -90 48 -112 25 -112 -24 0 -50 33 -89 111 -64 133 -82 263 -45 331 12 21 14 17 21 -47 5 -38 17 -99 28 -135z m212 85 c56 -108 135 -198 253 -285 53 -40 57 -45 36 -48 -13 -2 -36 6 -52 17 -15 12 -35 21 -43 21 -44 0 -176 182 -221 305 -26 73 -13 68 27 -10z m2377 7 c-1 -15 -2 -15 -6 1 -2 9 -9 14 -15 11 -7 -4 -8 -2 -4 5 10 15 26 4 25 -17z m-49 -17 c0 -7 -6 -18 -13 -22 -8 -4 -22 -21 -33 -38 l-19 -30 28 18 c44 29 43 13 -1 -23 -22 -17 -52 -54 -67 -82 -20 -36 -30 -46 -36 -37 -6 11 -9 10 -15 -5 -10 -27 -24 1 -23 49 0 35 1 37 10 17 12 -30 24 -22 55 39 25 51 89 129 105 129 5 0 9 -7 9 -15z m-2619 -87 c6 -24 33 -92 61 -151 35 -76 47 -112 40 -119 -20 -20 -41 2 -83 88 -33 68 -43 101 -47 155 -5 80 10 94 29 27z m2449 3 c0 -5 -7 -11 -15 -14 -8 -4 -23 -24 -34 -47 -15 -32 -16 -40 -5 -40 16 0 19 -16 4 -25 -6 -3 -5 -15 2 -30 9 -19 19 -25 45 -25 32 0 43 -12 23 -25 -5 -3 -10 -14 -10 -24 0 -19 -40 -31 -107 -31 -36 0 -37 2 -24 28 25 50 32 92 20 125 -13 37 -6 86 14 91 7 2 26 8 42 14 40 13 45 14 45 3z m-2401 -275 c14 -17 -1 -56 -23 -56 -29 0 -86 151 -86 225 1 25 8 15 48 -62 27 -50 54 -98 61 -107z m1816 139 c137 -45 269 -129 263 -169 -5 -34 -37 -31 -97 12 -138 97 -237 126 -411 120 -131 -5 -186 -22 -287 -88 -104 -67 -161 -48 -79 27 61 55 159 102 250 119 106 20 262 11 361 -21z m-1565 -40 c42 -54 49 -85 12 -51 -21 18 -80 122 -65 113 6 -4 29 -31 53 -62z m2020 -1 c-18 -52 -25 -33 -9 23 7 27 15 40 17 30 2 -9 -2 -33 -8 -53z m-452 -54 c91 -36 187 -98 187 -119 0 -21 -32 -38 -48 -26 -186 139 -402 161 -602 60 -79 -40 -87 -41 -106 -19 -12 14 -9 20 16 40 41 33 119 70 185 89 39 10 89 14 170 12 103 -3 124 -7 198 -37z m-1368 -11 c0 -22 -69 -39 -152 -38 l-83 2 57 7 c32 4 64 13 72 20 9 6 20 9 25 5 6 -3 19 -1 28 4 23 14 53 14 53 0z m1795 2 c3 -5 1 -12 -5 -16 -5 -3 -10 1 -10 9 0 18 6 21 15 7z m-2335 -41 c13 -24 2 -50 -11 -29 -9 15 -12 49 -4 49 2 0 9 -9 15 -20z m862 -42 c143 -61 251 -128 331 -206 51 -49 87 -98 87 -117 0 -3 -11 -5 -24 -5 -23 0 -80 40 -190 133 -24 21 -106 67 -181 102 -76 35 -146 72 -156 81 -24 22 -27 79 -3 70 8 -3 70 -29 136 -58z m-582 43 c0 -8 -52 -23 -59 -16 -1 2 0 8 4 14 8 13 55 15 55 2z m345 -1 c-3 -5 -16 -10 -28 -10 -27 0 -54 -16 -44 -26 14 -15 -86 -55 -121 -49 -18 3 -38 2 -45 -2 -8 -5 -1 -10 20 -13 24 -4 30 -8 24 -18 -7 -12 -21 -10 -80 9 -70 23 -71 23 -86 3 -19 -25 -19 -40 0 -24 9 7 17 11 19 9 3 -2 -30 -29 -72 -58 -105 -74 -152 -120 -152 -148 0 -13 -4 -23 -10 -23 -6 0 -6 -9 0 -24 5 -13 6 -27 3 -30 -4 -3 -3 -6 0 -6 4 0 16 18 27 40 30 58 86 117 123 129 58 18 120 24 113 12 -4 -6 -11 -9 -16 -6 -15 9 -65 -22 -85 -51 -23 -36 -45 -118 -45 -171 0 -24 -5 -43 -11 -43 -6 0 -9 -12 -7 -27 2 -22 -1 -27 -15 -25 -16 3 -17 0 -7 -19 12 -21 11 -22 -18 -16 -30 6 -31 5 -22 -18 26 -69 39 -84 70 -82 26 2 30 6 30 30 0 27 -13 36 -25 17 -12 -19 -25 -10 -25 16 0 30 67 104 95 104 13 0 10 -7 -14 -29 -39 -36 -39 -49 0 -97 38 -48 47 -54 83 -54 32 0 145 57 153 77 13 33 103 57 103 28 0 -8 -9 -15 -20 -15 -11 0 -20 -3 -20 -8 0 -4 -12 -13 -27 -19 -27 -12 -43 -27 -110 -98 -23 -25 -28 -27 -31 -12 -4 20 -32 23 -32 3 0 -18 -57 -54 -99 -62 -17 -4 -31 -11 -31 -17 0 -6 -16 -7 -42 -2 -24 4 -65 8 -93 9 -27 1 -65 10 -82 19 -33 18 -46 34 -18 23 19 -7 19 3 0 28 -8 11 -15 30 -15 43 0 13 -5 23 -11 23 -6 0 -9 9 -6 20 6 24 -9 36 -27 21 -15 -13 -49 18 -51 47 0 9 -4 23 -9 30 -4 7 -3 19 3 26 9 11 6 15 -11 20 -14 5 -18 9 -11 12 10 5 10 10 1 27 -7 12 -14 29 -15 37 -11 62 -17 81 -26 87 -6 4 -7 1 -2 -7 5 -9 4 -11 -4 -6 -9 6 -10 25 -5 64 7 63 24 94 24 46 0 -17 6 -39 14 -49 13 -19 15 -18 57 10 l44 28 -29 -34 -29 -34 28 -5 c25 -5 27 -6 12 -19 -21 -17 -22 -35 -2 -51 13 -11 15 -8 15 14 0 16 5 26 15 26 9 0 15 9 15 23 0 13 6 29 13 36 10 11 8 13 -10 8 -21 -5 -19 -1 12 36 26 30 32 44 24 53 -14 17 14 104 41 129 19 17 20 17 20 -2 0 -11 -9 -32 -20 -46 -11 -14 -20 -32 -20 -41 0 -14 3 -14 20 -4 11 7 21 19 22 27 2 8 19 20 38 26 23 8 36 19 38 33 4 26 -13 29 -27 5 -6 -10 -11 -13 -11 -6 0 13 54 61 87 76 12 5 29 7 39 3 15 -6 14 -10 -10 -34 -14 -16 -23 -31 -19 -35 3 -4 1 -7 -5 -7 -7 0 -30 -17 -52 -37 -29 -28 -38 -43 -34 -59 3 -13 -2 -34 -12 -48 -33 -51 -2 -42 89 28 9 7 17 16 17 20 0 10 -29 7 -50 -6 -10 -7 -23 -9 -27 -4 -11 10 40 50 104 82 49 24 65 52 22 39 -29 -10 -23 3 11 20 19 10 57 15 113 15 63 0 103 6 158 25 77 25 135 32 124 15z m1275 -32 c30 -14 74 -40 98 -57 37 -27 41 -34 32 -51 -15 -28 -43 -25 -91 10 -108 78 -258 94 -405 45 -42 -14 -87 -25 -98 -23 -61 9 22 72 124 95 33 7 102 11 170 9 98 -2 123 -7 170 -28z m622 8 c36 -8 80 -21 96 -30 40 -21 142 -115 142 -131 0 -29 -20 -23 -81 26 -103 83 -134 94 -274 94 -116 0 -123 -1 -188 -33 -80 -40 -151 -107 -194 -182 -17 -31 -38 -62 -47 -69 -14 -12 -16 -10 -16 13 0 77 137 240 237 283 100 43 211 53 325 29z m-1211 -46 c90 -53 122 -78 191 -147 73 -71 87 -96 68 -118 -21 -25 -38 -17 -71 33 -53 77 -107 138 -181 202 -38 33 -67 60 -64 60 3 0 28 -14 57 -30z m-522 -46 c169 -67 246 -111 315 -177 98 -95 25 -88 -112 10 -72 52 -109 72 -314 166 -43 20 -78 38 -78 42 0 18 89 -1 189 -41z m2015 18 c27 -15 58 -39 69 -53 55 -75 -70 -192 -344 -323 -359 -171 -958 -328 -1554 -408 -217 -29 -830 -38 -937 -14 -86 20 -183 69 -212 109 -20 27 -20 28 -2 62 11 19 22 35 25 35 3 0 16 -22 29 -49 27 -60 73 -85 201 -109 107 -20 513 -22 706 -4 895 87 1780 361 1968 609 36 48 34 72 -8 123 -19 23 -35 44 -35 46 0 13 52 0 94 -24z m-2198 -11 c107 -46 209 -105 209 -121 0 -41 -98 -5 -237 87 -103 68 -89 84 28 34z m1245 4 c56 -20 129 -79 129 -106 0 -28 -24 -23 -83 16 -93 61 -248 76 -334 31 -41 -21 -56 -20 -77 3 -13 14 -14 20 -4 28 15 12 93 40 128 47 48 9 196 -2 241 -19z m695 -1 c93 -28 197 -125 166 -156 -9 -9 -18 -7 -39 10 -124 99 -198 124 -311 103 -84 -16 -173 -62 -219 -115 -20 -23 -51 -74 -70 -113 -44 -94 -81 -100 -61 -10 22 101 99 208 179 252 101 55 232 65 355 29z m-2052 -35 c35 -28 27 -34 -21 -18 -48 17 -46 16 -38 28 10 17 30 13 59 -10z m-97 -21 c15 -7 53 -28 83 -48 30 -20 94 -60 143 -89 48 -29 87 -59 87 -66 0 -27 -49 -29 -99 -5 -86 42 -271 186 -271 211 0 13 24 11 57 -3z m-93 -19 c-3 -5 -10 -7 -15 -3 -5 3 -7 10 -3 15 3 5 10 7 15 3 5 -3 7 -10 3 -15z m1548 -11 c72 -31 106 -84 79 -126 -6 -10 -21 -2 -61 32 -64 55 -91 61 -222 52 -92 -6 -98 -5 -98 13 0 10 6 24 13 30 43 35 206 35 289 -1z m702 1 c53 -27 106 -78 106 -101 0 -26 -21 -22 -101 19 -62 33 -81 38 -138 38 -50 0 -77 -6 -111 -23 -64 -34 -127 -98 -161 -164 -24 -47 -34 -58 -54 -58 -19 0 -25 5 -25 23 0 58 94 193 166 238 99 61 232 73 318 28z m-1886 -33 c83 -42 98 -57 82 -85 -16 -31 -37 -26 -122 29 -74 47 -93 72 -65 83 24 10 38 7 105 -27z m204 -28 c-11 -13 -36 -32 -54 -42 l-33 -19 40 42 c21 22 46 41 54 41 11 0 9 -6 -7 -22z m853 3 c5 -9 -32 -24 -94 -36 -26 -6 -32 -4 -29 6 8 26 110 50 123 30z m-1440 -11 c-3 -5 -11 -10 -16 -10 -6 0 -7 5 -4 10 3 6 11 10 16 10 6 0 7 -4 4 -10z m85 0 c0 -5 -7 -10 -16 -10 -8 0 -12 5 -9 10 3 6 10 10 16 10 5 0 9 -4 9 -10z m2146 -10 c26 -10 84 -59 84 -71 0 -14 -44 -11 -86 7 -91 38 -222 -11 -277 -103 -23 -39 -38 -53 -54 -53 -60 0 10 130 101 188 74 47 159 59 232 32z m-2006 -63 c52 -34 94 -67 92 -72 -1 -6 -22 -10 -45 -9 -34 0 -58 10 -115 48 -73 49 -82 62 -60 84 19 19 29 15 128 -51z m1297 34 c58 -20 143 -93 181 -155 26 -44 29 -107 6 -130 -26 -27 -34 -18 -34 37 0 41 -6 63 -29 99 -36 57 -75 72 -178 66 -73 -3 -76 -5 -113 -44 -61 -66 -74 -137 -39 -214 19 -43 19 -45 2 -58 -23 -17 -71 -8 -97 18 -46 45 -6 274 53 305 14 7 37 25 50 39 14 14 34 26 45 26 12 1 35 7 51 15 39 18 41 17 102 -4z m-1463 -22 c81 -50 166 -119 166 -135 0 -10 -12 -14 -38 -14 -32 0 -55 12 -135 71 -53 39 -97 74 -97 79 0 10 29 29 44 30 5 0 32 -14 60 -31z m580 9 c-14 -47 -35 -77 -85 -122 -49 -44 -69 -55 -69 -38 0 4 21 27 46 52 25 24 57 63 71 87 27 46 49 58 37 21z m91 -13 l30 -24 -47 -1 c-40 0 -48 3 -48 18 0 39 23 42 65 7z m-237 -29 c-8 -6 -17 -18 -21 -26 -5 -13 -6 -13 -6 0 -1 23 32 67 37 50 3 -7 -2 -18 -10 -24z m82 26 c0 -13 -23 -32 -39 -32 -11 0 -10 4 4 20 19 21 35 26 35 12z m-561 -68 c98 -69 133 -105 120 -121 -18 -20 -36 -15 -43 12 -4 17 -15 27 -34 30 -72 15 -103 27 -117 48 -21 30 -19 77 3 77 2 0 34 -21 71 -46z m2211 34 c31 -10 32 -12 15 -25 -11 -7 -38 -13 -62 -13 -54 0 -104 -20 -149 -60 -56 -49 -84 -35 -45 23 46 71 156 105 241 75z m-1130 -38 c86 -11 110 -21 110 -46 0 -18 -55 -18 -230 1 -74 8 -189 15 -254 15 l-119 0 24 26 24 27 180 -7 c99 -3 218 -11 265 -16z m-561 6 c-2 -2 -15 -9 -29 -16 -23 -12 -24 -12 -11 3 7 10 20 17 29 17 8 0 13 -2 11 -4z m981 -6 c0 -5 11 -10 24 -10 29 0 81 -41 101 -81 19 -36 19 -93 0 -109 -12 -10 -16 -9 -22 6 -4 10 -2 19 5 22 20 6 2 54 -31 81 -46 40 -89 61 -124 61 -68 0 -142 -105 -115 -165 6 -13 26 -31 43 -41 30 -15 35 -15 66 0 26 12 34 22 31 39 -2 17 -9 22 -31 20 -22 -1 -27 2 -27 21 0 28 28 56 38 39 4 -6 18 -13 32 -14 14 -2 25 -9 25 -16 0 -6 3 -15 8 -19 4 -4 7 -17 7 -29 0 -61 -143 -101 -187 -52 -39 43 -58 107 -32 107 6 0 9 6 6 14 -3 8 4 30 16 48 33 49 167 112 167 78z m-1102 -32 c-3 -7 -58 -45 -124 -84 -66 -39 -144 -89 -173 -112 -58 -46 -96 -61 -114 -43 -16 16 22 52 135 128 137 91 290 153 276 111z m2212 -29 c0 -99 -53 -389 -97 -529 -22 -73 -33 -92 -78 -136 -62 -62 -206 -143 -380 -217 -615 -258 -1381 -366 -1915 -271 -112 20 -242 53 -256 65 -36 30 -294 500 -294 535 0 15 8 14 90 -7 156 -40 730 -37 1035 5 642 89 1252 260 1646 462 59 30 131 72 160 94 72 52 89 52 89 -1z m-510 16 c-14 -8 -29 -14 -35 -14 -5 0 1 6 15 14 14 8 30 14 35 14 6 0 -1 -6 -15 -14z m-1074 -29 c89 -13 134 -28 134 -46 0 -16 -57 -21 -126 -10 -38 6 -175 12 -304 13 -231 1 -237 1 -332 -27 -53 -16 -104 -26 -113 -23 -29 12 -15 35 37 57 43 18 62 21 111 15 47 -5 64 -3 85 11 15 10 43 21 62 26 49 10 337 0 446 -16z m-1096 0 c0 -16 -18 -31 -27 -22 -8 8 5 36 17 36 5 0 10 -6 10 -14z m1597 -6 c20 -12 35 -30 38 -47 4 -15 8 -36 10 -45 2 -10 -1 -21 -6 -24 -5 -3 -9 4 -9 15 0 27 -45 78 -74 83 -38 8 -84 -17 -92 -48 -6 -23 -2 -32 22 -51 l29 -23 -24 0 c-64 0 -83 80 -32 131 36 35 90 39 138 9z m-1489 -22 c-5 -15 -78 -24 -78 -9 0 9 24 17 63 20 11 0 17 -4 15 -11z m1857 -17 c3 -6 -10 -13 -30 -17 -42 -8 -125 3 -125 17 0 12 147 12 155 0z m-931 -26 c165 -16 199 -25 190 -50 -8 -20 -54 -19 -282 2 -153 14 -199 15 -277 5 -181 -23 -328 -90 -457 -209 -59 -54 -88 -66 -88 -37 0 17 85 103 161 164 154 122 386 160 753 125z m-924 -14 c0 -32 -72 -40 -78 -8 -3 14 4 17 37 17 23 0 41 -4 41 -9z m-79 -41 c10 -6 19 -15 19 -20 0 -14 -34 -12 -48 2 -26 26 -7 37 29 18z m904 -25 c108 -29 233 -95 219 -116 -10 -16 -60 -9 -147 21 -83 29 -95 30 -250 30 -196 0 -230 -8 -378 -91 -101 -57 -169 -82 -169 -62 0 21 100 105 170 141 88 47 149 69 245 88 84 16 226 11 310 -11z m270 -21 c9 -4 14 -12 12 -18 -7 -18 -82 -9 -124 14 l-38 21 67 -6 c37 -3 75 -8 83 -11z m-1525 -76 c0 -4 -4 -8 -10 -8 -5 0 -10 4 -10 9 0 5 -3 18 -6 28 -5 16 -4 16 10 -1 9 -11 16 -23 16 -28z m1222 8 c36 -8 81 -22 100 -32 l33 -18 -40 -9 c-27 -7 -66 -7 -121 1 -142 21 -261 9 -364 -37 -55 -24 -145 -38 -154 -23 -8 13 99 73 170 96 117 38 261 46 376 22z m348 -6 c0 -5 -13 -10 -30 -10 -16 0 -30 5 -30 10 0 6 14 10 30 10 17 0 30 -4 30 -10z m-1162 -97 c-15 -15 -30 -24 -33 -21 -8 7 35 48 49 48 6 0 -2 -12 -16 -27z m677 12 c-83 -14 -223 -20 -212 -9 14 14 79 22 182 22 l110 0 -80 -13z m-768 -21 c-3 -3 -12 -4 -19 -1 -8 3 -5 6 6 6 11 1 17 -2 13 -5z m2456 -541 c-23 -64 -119 -255 -157 -311 -57 -86 -191 -216 -282 -275 -137 -89 -336 -161 -583 -213 -310 -64 -707 -2 -965 153 -162 97 -321 221 -304 238 3 3 52 -4 109 -15 201 -40 616 -37 934 6 422 57 930 226 1165 388 71 49 93 56 83 29z" fill="#253054"/>
<path d="M2655 3156 c-67 -21 -119 -52 -165 -98 -171 -170 -47 -345 171 -240 125 60 202 151 202 239 0 90 -95 135 -208 99z m143 -36 c26 -16 32 -26 32 -54 0 -48 -14 -80 -58 -134 -43 -52 -115 -102 -149 -102 -13 0 -31 -5 -41 -11 -13 -8 -29 -8 -60 1 -52 13 -82 41 -82 75 0 32 24 90 42 101 7 5 19 21 26 37 6 15 24 33 39 39 16 7 31 17 34 21 11 15 111 46 149 47 19 0 50 -9 68 -20z" fill="#253054"/>
<path d="M1560 2205 c-20 -24 -5 -28 21 -6 19 16 20 20 8 21 -9 0 -22 -7 -29 -15z" fill="#253054"/>
<path d="M1524 1841 c-10 -17 -26 -34 -36 -37 -10 -3 -18 -11 -18 -18 0 -8 -9 -34 -21 -60 -20 -47 -23 -123 -4 -119 6 1 13 22 16 46 9 55 23 82 54 103 16 11 25 26 25 43 0 15 4 31 10 37 5 5 5 15 1 23 -6 10 -13 6 -27 -18z" fill="#253054"/>
<path d="M1377 1725 c-19 -17 -23 -25 -13 -25 10 0 16 -9 16 -24 0 -31 10 -56 21 -56 5 0 7 11 3 24 -3 13 -1 27 5 30 12 8 15 76 4 76 -5 0 -21 -12 -36 -25z" fill="#253054"/>
<path d="M1501 1714 c0 -11 3 -14 6 -6 3 7 2 16 -1 19 -3 4 -6 -2 -5 -13z" fill="#253054"/>
<path d="M1300 1645 c0 -17 2 -18 24 -9 23 9 20 24 -4 24 -11 0 -20 -7 -20 -15z" fill="#253054"/>
<path d="M1540 1478 c0 -36 11 -41 64 -27 58 14 59 29 3 29 -24 0 -48 5 -55 12 -9 9 -12 6 -12 -14z" fill="#253054"/>
<path d="M4096 1583 l-137 -67 3 -111 3 -110 34 2 c53 2 85 32 89 82 2 30 -1 43 -12 47 -26 10 -18 33 17 54 17 11 36 20 41 20 11 0 0 -149 -13 -184 -11 -26 -179 -123 -191 -109 -4 4 -12 68 -19 142 -6 74 -13 136 -15 139 -2 2 -82 -25 -178 -61 -95 -36 -206 -75 -246 -88 l-73 -23 3 -207 c2 -114 6 -211 11 -215 9 -9 293 84 306 100 9 11 31 186 31 246 0 24 -3 27 -22 23 -112 -25 -162 -60 -156 -109 3 -25 8 -29 33 -29 25 -1 30 -5 30 -25 0 -26 -37 -51 -97 -65 -26 -7 -26 -7 -33 67 -4 40 -5 89 -3 108 l3 35 139 48 c108 37 141 45 148 35 4 -7 8 -69 8 -138 0 -80 4 -130 11 -137 15 -15 77 9 226 88 176 94 179 100 208 329 19 154 19 180 1 180 -7 0 -75 -30 -150 -67z" fill="#253054"/>
<path d="M3128 1263 l-148 -37 0 -30 c1 -32 45 -244 52 -252 10 -10 114 18 132 35 29 30 15 83 -27 102 -63 27 -44 58 45 72 42 6 42 6 54 -125 6 -73 5 -77 -17 -91 -23 -14 -217 -62 -224 -55 -2 1 -19 64 -38 138 -50 192 -50 192 -89 186 -18 -3 -69 -10 -113 -16 -83 -12 -300 -46 -347 -56 -16 -3 -28 -12 -28 -19 0 -8 30 -101 67 -206 l67 -192 121 6 c66 3 137 11 159 17 l39 12 -6 51 c-3 29 -15 83 -27 121 l-22 69 -61 -7 c-62 -6 -107 -27 -107 -49 0 -26 31 -57 58 -57 15 0 34 -5 42 -10 25 -15 -7 -37 -65 -44 l-51 -6 -27 83 c-15 46 -27 90 -27 99 0 12 22 20 98 34 53 10 119 18 146 18 l49 1 22 -100 c30 -132 48 -173 78 -180 41 -11 316 48 379 81 l28 15 -1 162 c0 89 -4 185 -7 212 -9 64 -14 65 -204 18z" fill="#253054"/>
<path d="M1414 1138 c-8 -13 137 -287 177 -332 30 -34 53 -50 91 -61 55 -16 208 -32 208 -21 0 3 -27 60 -60 126 l-60 120 -60 0 c-46 0 -62 -4 -67 -16 -6 -16 32 -64 52 -64 15 0 45 -33 45 -48 0 -24 -41 -11 -80 24 -41 37 -102 132 -94 146 3 4 59 8 125 8 l119 0 67 -137 c45 -90 78 -144 96 -158 27 -19 43 -20 245 -20 l217 0 3 25 c3 23 -76 263 -115 354 l-17 39 -141 -7 c-159 -7 -215 -14 -215 -28 0 -5 18 -56 40 -112 l40 -103 101 -7 c56 -4 103 -5 106 -3 8 9 -37 86 -56 97 -11 5 -32 10 -46 10 -34 0 -65 17 -65 35 0 12 17 15 84 15 l85 0 19 -53 c29 -76 44 -138 37 -146 -4 -3 -67 -6 -141 -6 -107 0 -136 3 -149 15 -8 9 -41 74 -74 145 l-58 130 -94 8 c-52 4 -154 14 -227 20 -74 7 -136 9 -138 5z" fill="#253054"/>
<path d="M940 4916 c0 -2 7 -6 15 -10 8 -3 15 -1 15 4 0 6 -7 10 -15 10 -8 0 -15 -2 -15 -4z" fill="#253054"/>
<path d="M3845 4218 c-50 -28 -157 -124 -185 -166 -26 -38 -31 -54 -27 -85 7 -51 33 -80 65 -72 69 17 195 124 228 193 44 92 -6 172 -81 130z m55 -17 c0 -15 -49 -49 -80 -56 -31 -7 -100 -77 -126 -127 -8 -16 -19 -28 -24 -28 -15 0 -12 16 5 30 8 7 15 18 15 24 0 18 100 112 150 140 49 28 60 31 60 17z m30 -71 c0 -49 -215 -232 -255 -216 -29 11 -15 34 40 65 31 18 88 63 128 101 40 38 75 70 80 70 4 0 7 -9 7 -20z m-88 -25 c-19 -24 -100 -95 -108 -95 -19 0 46 70 96 103 33 23 35 21 12 -8z" fill="#253054"/>
<path d="M1343 3916 c-17 -14 -35 -26 -40 -26 -14 0 -103 -107 -103 -123 0 -8 -12 -31 -26 -53 -20 -28 -25 -45 -20 -68 21 -108 28 -133 45 -146 10 -8 30 -34 44 -56 20 -32 34 -43 60 -48 19 -4 49 -14 67 -22 40 -21 144 -30 173 -16 12 6 43 20 69 31 35 14 52 29 66 58 11 21 29 47 41 57 13 12 21 31 21 51 0 17 7 40 15 51 20 26 19 38 -11 113 -35 87 -113 175 -173 196 -26 9 -80 19 -121 22 -71 5 -77 4 -107 -21z m204 -18 c40 -13 68 -29 75 -42 5 -12 28 -37 49 -57 23 -21 39 -46 39 -59 0 -12 7 -38 16 -57 14 -28 15 -41 6 -71 -6 -20 -14 -50 -17 -67 -4 -16 -15 -35 -26 -43 -11 -7 -28 -31 -39 -53 -14 -27 -27 -39 -43 -39 -12 -1 -33 -7 -47 -15 -38 -22 -146 -19 -199 5 -24 11 -52 20 -62 20 -11 0 -25 13 -35 33 -10 17 -29 48 -44 67 -15 19 -33 59 -40 87 -11 47 -10 56 8 85 11 18 23 44 27 58 4 14 23 42 41 63 19 20 34 41 34 46 0 5 15 15 34 21 19 6 40 18 46 26 18 21 103 18 177 -8z" fill="#253054"/>
<path d="M1396 3850 c-63 -19 -136 -129 -136 -206 0 -65 78 -155 151 -174 61 -17 107 -5 150 39 90 90 38 244 -82 244 -72 0 -108 -60 -78 -127 12 -25 61 -52 77 -42 5 3 12 20 16 38 4 23 9 29 17 21 16 -16 1 -71 -21 -83 -34 -18 -62 -10 -101 29 -44 44 -51 83 -22 131 22 39 57 55 114 55 46 0 52 -3 114 -65 70 -69 79 -67 41 9 -50 99 -155 156 -240 131z m108 -31 c38 -18 21 -29 -33 -22 -47 5 -51 4 -95 -37 -44 -41 -46 -45 -46 -100 0 -48 5 -63 28 -91 26 -32 30 -34 91 -34 63 0 65 1 84 33 18 30 18 38 7 73 -12 34 -17 40 -39 37 -20 -2 -27 -10 -32 -33 -3 -19 -10 -29 -20 -27 -29 7 -41 26 -35 54 4 21 2 27 -7 23 -6 -4 -1 3 13 15 13 12 26 18 27 13 2 -5 18 -7 36 -5 41 4 82 -33 97 -89 15 -53 -10 -112 -54 -131 -67 -28 -178 0 -197 49 -4 12 -13 23 -19 23 -7 0 -9 8 -5 19 3 11 1 22 -5 26 -29 18 1 136 47 177 40 36 110 48 157 27z" fill="#253054"/>
<path d="M3590 3072 c-48 -39 -35 -188 20 -244 35 -35 69 -36 100 -3 20 22 22 30 16 81 -11 97 -60 184 -102 184 -7 0 -22 -8 -34 -18z m81 -54 c25 -48 38 -152 20 -162 -7 -5 -11 5 -11 31 0 21 -12 65 -25 98 -28 67 -29 75 -15 75 5 0 19 -19 31 -42z m-61 -75 c10 -37 21 -79 25 -93 l7 -25 -21 23 c-25 28 -41 82 -41 136 0 52 8 42 30 -41z m39 -23 c0 -23 -1 -23 -9 -5 -5 11 -9 29 -9 40 -1 17 1 17 9 5 5 -8 9 -26 9 -40z" fill="#253054"/>
<path d="M4290 2752 c-56 -55 -62 -72 -25 -72 34 0 107 66 103 93 -5 36 -28 30 -78 -21z m45 -2 c-10 -17 -45 -32 -45 -20 0 6 10 15 23 20 29 12 29 12 22 0z" fill="#253054"/>
<path d="M826 2628 c-27 -43 -28 -67 -7 -102 37 -59 173 -162 229 -172 41 -8 82 17 82 50 0 51 -134 185 -225 227 -52 24 -62 24 -79 -3z m82 -25 c26 -16 40 -27 112 -83 29 -23 80 -96 80 -115 0 -5 -30 22 -67 61 -38 38 -91 85 -120 104 -50 34 -64 50 -43 50 6 0 23 -8 38 -17z m-18 -79 c30 -30 83 -76 118 -102 74 -55 65 -68 -14 -20 -63 37 -184 147 -184 166 0 25 27 10 80 -44z m105 -55 l20 -23 -30 21 c-16 11 -39 31 -50 44 l-20 23 30 -21 c17 -11 39 -31 50 -44z" fill="#253054"/>
<path d="M4215 2526 c-71 -32 -193 -206 -146 -206 14 0 213 134 234 158 10 11 17 29 15 39 -4 23 -61 28 -103 9z m70 -16 c6 -9 -70 -74 -138 -117 -39 -25 -61 -27 -32 -3 8 7 15 19 15 26 0 7 12 21 28 31 15 10 35 28 45 40 9 12 27 24 40 26 12 2 25 5 29 6 4 0 9 -3 13 -9z" fill="#253054"/>
<path d="M1308 2293 c-34 -40 -65 -144 -51 -178 5 -14 8 -14 24 1 31 28 91 143 87 167 -4 28 -39 34 -60 10z m32 -28 c0 -17 -32 -65 -40 -60 -13 8 9 65 26 65 8 0 14 -2 14 -5z" fill="#253054"/>
<path d="M1044 1849 c-10 -17 40 -61 66 -57 l23 3 -27 33 c-29 33 -50 40 -62 21z" fill="#253054"/>
</g>
</svg>